<?xml version="1.0" encoding="UTF-8"?>
<svg id="Layer_1" data-name="Layer 1" xmlns="http://www.w3.org/2000/svg" version="1.1" xmlns:xlink="http://www.w3.org/1999/xlink" viewBox="0 0 800 800">
  <defs>
    <style>
      .cls-1 {
        fill: url(#radial-gradient);
        stroke-width: 0px;
      }
    </style>
    <radialGradient id="radial-gradient" cx="400" cy="400" fx="124.9" fy="690.3" r="400" gradientUnits="userSpaceOnUse">
      <stop offset="0" stop-color="#e8e8e8"/>
      <stop offset=".2" stop-color="#e3e3e3"/>
      <stop offset=".4" stop-color="#d7d7d7"/>
      <stop offset=".7" stop-color="#c3c3c3"/>
      <stop offset=".9" stop-color="#a6a6a8"/>
      <stop offset="1" stop-color="#949496"/>
    </radialGradient>
  </defs>
  <path class="cls-1" d="M800,400c0-141.6-74.1-266.2-185.4-337.3,1.5-6.1.4-13-3.3-19.9-4.4-8.1-11.9-15.4-21.3-20.6-19.7-11-40.9-9.3-49.5,3.3C496.7,9.1,449.4,0,400,0c-107.7,0-205.5,42.8-277.5,112.3-5.9-3.2-13.4-3.6-21.4-1-8.7,2.8-17.3,8.9-24.1,17.1-13.4,16.2-16.3,35.7-7.9,47C25.5,239.5,0,316.8,0,400c0,220.6,179.4,400,400,400s127.8-16.4,182.6-44.7c4.6,4.8,11.4,7.2,19.7,7.2h.6c9.2,0,19.1-3.1,28.1-8.9,9-5.9,16-13.5,19.7-21.9,3.5-7.7,3.9-15.1,1.3-21.4,90.2-73.4,148-185.2,148-310.3ZM210.7,587.2c-12.3,12.3-36,8.5-53-8.5-17-17-20.8-40.7-8.5-53s36-8.5,53,8.5c17,17,20.8,40.8,8.5,53ZM256,401.6c-42,0-76.1-34-76.1-76s34-76.1,76.1-76.1,76,34,76,76.1-34,76-76,76ZM425,544c-27.7,0-50.1-22.4-50.1-50.1s22.4-50.1,50.1-50.1,50.1,22.4,50.1,50.1c0,27.7-22.4,50.1-50.1,50.1ZM537.5,311.8c-24,0-43.5-19.5-43.5-43.5s19.5-43.5,43.5-43.5,43.5,19.5,43.5,43.5c0,24-19.5,43.5-43.5,43.5ZM653.6,578.7c-17,17-40.7,20.8-53,8.5-12.3-12.3-8.5-36.1,8.5-53,17-17,40.7-20.8,53-8.5,12.3,12.3,8.5,36-8.5,53Z"/>
</svg>